<svg width="140" height="32" viewBox="0 0 140 32" xmlns="http://www.w3.org/2000/svg">
  <!-- Letter Z - solid dark purple -->
  <path d="M 2 4 L 2 8 L 14 8 L 14 12 L 2 12 L 2 16 L 14 16 L 14 20 L 2 20 L 2 24 L 14 24 L 14 28 L 2 28 Z" fill="#6B2C6B"/>
  
  <!-- Lightbulb Icon (O) -->
  <!-- Bulb main shape -->
  <path d="M 20 6 C 20 6 20 8 20 10 C 20 12 22 14 24 14 C 26 14 28 12 28 10 C 28 8 28 6 28 6 L 20 6 Z" fill="#DAB1DA" stroke="#000" stroke-width="1.5"/>
  <!-- Inner white circle -->
  <circle cx="24" cy="10" r="2.5" fill="white" stroke="#000" stroke-width="1"/>
  <!-- Base segments -->
  <rect x="22" y="14" width="4" height="2" fill="#DAB1DA" stroke="#000" stroke-width="1"/>
  <rect x="22" y="16" width="4" height="1" fill="#DAB1DA" stroke="#000" stroke-width="1"/>
  <rect x="23" y="17" width="2" height="2" fill="#DAB1DA" stroke="#000" stroke-width="1"/>
  <!-- Light rays from top -->
  <rect x="23.5" y="4" width="1" height="1.5" fill="#000"/>
  <rect x="22.5" y="3" width="3" height="1" fill="#000"/>
  <rect x="23.5" y="2" width="1" height="1" fill="#000"/>
  
  <!-- Letter N - solid dark purple -->
  <path d="M 34 4 L 34 28 L 38 28 L 38 12 L 46 28 L 50 28 L 50 4 L 46 4 L 46 20 L 38 4 Z" fill="#6B2C6B"/>
  
  <!-- Letter E - outlined in black -->
  <path d="M 54 4 L 54 28 L 66 28 L 66 24 L 58 24 L 58 20 L 64 20 L 64 16 L 58 16 L 58 12 L 64 12 L 64 8 L 58 8 L 58 4 Z" fill="none" stroke="#000" stroke-width="1.8" stroke-linejoin="miter"/>
  
  <!-- Letter X - outlined in black -->
  <path d="M 70 4 L 74 4 L 78 12 L 82 4 L 86 4 L 80 16 L 86 28 L 82 28 L 78 20 L 74 28 L 70 28 L 76 16 Z" fill="none" stroke="#000" stroke-width="1.8" stroke-linejoin="miter"/>
</svg>

